<svg width="32" height="32" viewBox="0 0 32 32" fill="none" xmlns="http://www.w3.org/2000/svg">
<g id="dribbble-black-sharp">
<g clip-path="url(#clip0_120_1488)">
<g id="dribbble">
<path d="M22.832 15.936C22.8 14.32 22.24 12.848 21.28 11.68C21.136 11.872 19.984 13.36 17.488 14.368C17.6478 14.6876 17.7916 15.0232 17.9355 15.3587L17.936 15.36C17.9601 15.4161 17.9841 15.4763 18.0081 15.5364C18.0321 15.5963 18.0561 15.6561 18.08 15.712C20.352 15.44 22.608 15.888 22.832 15.936Z" fill="#F5F5F5"/>
<path d="M20.528 10.896C19.328 9.84 17.728 9.184 16 9.184C15.44 9.184 14.912 9.248 14.4 9.36C14.4214 9.39107 14.4585 9.44312 14.5093 9.51429C14.8771 10.0295 15.9599 11.5465 16.944 13.36C19.376 12.448 20.4 11.072 20.528 10.896Z" fill="#F5F5F5"/>
<path d="M15.616 13.776C14.48 11.76 13.264 10.064 13.088 9.824C11.184 10.72 9.76001 12.48 9.29599 14.608L9.31256 14.608C9.69067 14.6083 12.4674 14.6104 15.616 13.776Z" fill="#F5F5F5"/>
<path d="M9.168 15.808V16.016C9.168 17.76 9.82401 19.36 10.928 20.576L10.9391 20.5582C11.1604 20.2017 13.0275 17.1942 16.48 16.08C16.5225 16.0658 16.565 16.0548 16.6061 16.0441C16.6579 16.0307 16.7074 16.0178 16.752 16C16.576 15.6 16.384 15.216 16.192 14.832C12.784 15.856 9.45599 15.824 9.168 15.808Z" fill="#F5F5F5"/>
<path d="M11.808 21.392C12.96 22.288 14.416 22.832 16 22.832C16.944 22.832 17.856 22.64 18.672 22.288C18.576 21.68 18.176 19.6 17.216 17.104C17.2049 17.104 17.1938 17.104 17.1826 17.1094C17.1778 17.1117 17.1729 17.1151 17.168 17.12C13.312 18.464 11.936 21.136 11.808 21.392Z" fill="#F5F5F5"/>
<path d="M18.48 16.8C19.376 19.248 19.744 21.248 19.808 21.664C21.344 20.64 22.432 18.992 22.736 17.088C22.7251 17.0851 22.7107 17.0811 22.6931 17.0763C22.3248 16.9748 20.5262 16.4793 18.48 16.8Z" fill="#F5F5F5"/>
<path fill-rule="evenodd" clip-rule="evenodd" d="M0 0H32V32H0V0ZM8 16C8 11.584 11.584 8 16 8C20.4 8 24 11.584 24 16C24 20.416 20.4 24 16 24C11.584 24 8 20.416 8 16Z" fill="#F5F5F5"/>
</g>
</g>
</g>
<defs>
<clipPath id="clip0_120_1488">
<rect width="32" height="32" rx="16" fill="white"/>
</clipPath>
</defs>
</svg>
