<svg width="25" height="24" viewBox="0 0 25 24" fill="none" xmlns="http://www.w3.org/2000/svg">
<g id="dribbble">
<path id="vector" fill-rule="evenodd" clip-rule="evenodd" d="M12.5 2C6.9794 2 2.5 6.4794 2.5 12C2.5 17.5206 6.9794 22 12.5 22C18.0098 22 22.5 17.5206 22.5 12C22.5 6.4794 18.0098 2 12.5 2ZM19.1052 6.60954C20.2983 8.0629 21.0141 9.91758 21.0358 11.9241C20.7538 11.8698 17.9338 11.295 15.0922 11.6529C15.0271 11.5119 14.9729 11.3601 14.9078 11.2082C14.7343 10.7961 14.539 10.3731 14.3438 9.9718C17.4892 8.69198 18.9208 6.84816 19.1052 6.60954ZM12.5 3.47505C14.6692 3.47505 16.654 4.2885 18.1616 5.62256C18.0098 5.83948 16.7191 7.564 13.6822 8.70282C12.2831 6.13232 10.7321 4.0282 10.4935 3.70282C11.1334 3.55098 11.8059 3.47505 12.5 3.47505ZM8.8666 4.27766C9.09436 4.58134 10.6128 6.69632 12.0336 9.21258C8.0423 10.2755 4.51736 10.2538 4.13774 10.2538C4.69088 7.60738 6.48048 5.40564 8.8666 4.27766ZM3.95336 12.0108C3.95336 11.9241 3.95336 11.8373 3.95336 11.7505C4.32213 11.7614 8.4653 11.8156 12.7278 10.5358C12.9772 11.013 13.205 11.5011 13.4219 11.9892C13.3134 12.0217 13.1941 12.0542 13.0857 12.0868C8.68222 13.5076 6.33948 17.3905 6.14426 17.7158C4.7885 16.2082 3.95336 14.2017 3.95336 12.0108ZM12.5 20.5466C10.526 20.5466 8.7039 19.8742 7.26138 18.7462C7.41324 18.4317 9.1486 15.0911 13.9642 13.41C13.9859 13.3991 13.9967 13.3991 14.0184 13.3883C15.2223 16.5011 15.7104 19.115 15.8406 19.8633C14.8102 20.308 13.6822 20.5466 12.5 20.5466ZM17.2614 19.0824C17.1746 18.5618 16.7191 16.0672 15.602 12.9978C18.2809 12.5748 20.6236 13.269 20.9165 13.3666C20.5477 15.7419 19.1811 17.7918 17.2614 19.0824Z" fill="#F5F5F5"/>
</g>
</svg>
