<svg width="16" height="16" viewBox="0 0 16 16" fill="none" xmlns="http://www.w3.org/2000/svg">
<rect width="16" height="16" fill="black"/>
<mask id="path-1-inside-1_353_1234" fill="white">
<path d="M1.6001 1.15991H14.4001V14.8399H1.6001V1.15991Z"/>
</mask>
<path d="M14.4001 13.5599H1.6001V16.1199H14.4001V13.5599Z" fill="#4CDA35" mask="url(#path-1-inside-1_353_1234)"/>
<path d="M10.3763 5.65591H8.23231V3.89591C8.23231 3.55991 8.16831 3.43191 7.97631 3.43191C7.78431 3.43191 7.68831 3.55991 7.68831 3.89591V5.03191C7.68831 5.70391 8.20031 6.26391 8.76031 6.85591C9.51231 7.60791 10.3923 8.48791 10.3923 9.94391V10.8879C10.3923 12.5519 9.44831 13.3999 7.96031 13.3999C6.47231 13.3999 5.54431 12.5519 5.54431 10.8879V9.44791H7.67231V11.2079C7.67231 11.5599 7.76831 11.6879 7.96031 11.6879C8.15231 11.6879 8.24831 11.5599 8.24831 11.2079V10.0719C8.24831 9.35191 7.59231 8.67991 6.92031 8.00791C6.24831 7.28791 5.54431 6.48791 5.54431 5.17591V4.19991C5.54431 2.55191 6.47231 1.71991 7.96031 1.71991C9.46431 1.71991 10.3763 2.56791 10.3763 4.19991V5.65591Z" fill="#F5F5F5"/>
</svg>
