<svg width="25" height="24" viewBox="0 0 25 24" fill="none" xmlns="http://www.w3.org/2000/svg">
<g id="figma">
<path id="vector" fill-rule="evenodd" clip-rule="evenodd" d="M5.54785 5.74189C5.54785 3.6753 7.22316 2 9.28975 2H15.7104C17.777 2 19.4523 3.6753 19.4523 5.74189C19.4523 7.05048 18.7806 8.20217 17.7631 8.87099C18.7806 9.5398 19.4523 10.6915 19.4523 12.0001C19.4523 14.0667 17.777 15.742 15.7104 15.742H15.6291C14.6603 15.742 13.7775 15.3738 13.1129 14.7697V18.2175C13.1129 20.3116 11.3938 22 9.30994 22C7.24848 22 5.54785 20.3298 5.54785 18.2581C5.54785 16.9496 6.21952 15.7979 7.23689 15.1291C6.21952 14.4603 5.54785 13.3086 5.54785 12.0001C5.54785 10.6915 6.21957 9.5398 7.23701 8.87099C6.21957 8.20217 5.54785 7.05048 5.54785 5.74189ZM11.8872 14.5162H9.28975L9.27492 14.5162C7.89208 14.5083 6.77355 13.3848 6.77355 12.0001C6.77355 10.6104 7.90008 9.48387 9.28975 9.48387H11.8872V14.5162ZM13.1129 12.0016C13.1138 13.3906 14.24 14.5163 15.6291 14.5163H15.7104C17.1001 14.5163 18.2266 13.3897 18.2266 12.0001C18.2266 10.6104 17.1001 9.48387 15.7104 9.48387H15.6291C14.24 9.48387 13.1138 10.6096 13.1129 11.9985V12.0016ZM9.28975 15.742L9.27502 15.7419C7.89213 15.7499 6.77355 16.8734 6.77355 18.2581C6.77355 19.6427 7.91514 20.7743 9.30994 20.7743C10.7272 20.7743 11.8872 19.6245 11.8872 18.2175V15.742H9.28975ZM9.28975 3.22569H11.8872V8.2581H9.28975C7.90009 8.2581 6.77355 7.13156 6.77355 5.74189C6.77355 4.35224 7.90009 3.22569 9.28975 3.22569ZM13.1129 8.2581V3.22569H15.7104C17.1001 3.22569 18.2266 4.35224 18.2266 5.74189C18.2266 7.13156 17.1001 8.2581 15.7104 8.2581H13.1129Z" fill="#F5F5F5"/>
</g>
</svg>
